HIERARCHY
ROOT Hips
{
	OFFSET 0.00000 0.00000 0.00000
	CHANNELS 6 Xposition Yposition Zposition Zrotation Yrotation Xrotation 
	JOINT LHipJoint
	{
		OFFSET 0 0 0
		CHANNELS 3 Zrotation Yrotation Xrotation
		JOINT LeftHip
		{
			OFFSET 1.27966 -1.91611 0.81506
			CHANNELS 3 Zrotation Yrotation Xrotation
			JOINT LeftKnee
			{
				OFFSET 2.49511 -6.85528 0.00000
				CHANNELS 3 Zrotation Yrotation Xrotation
				JOINT LeftAnkle
				{
					OFFSET 2.67286 -7.34045 0.00000
					CHANNELS 3 Zrotation Yrotation Xrotation
					JOINT LeftToe
					{
						OFFSET 0.22740 -0.62477 2.32102
						CHANNELS 3 Zrotation Yrotation Xrotation
						End Site
						{
							OFFSET 0.00000 -0.00000 1.20480
						}
					}
				}
			}
		}
	}
	JOINT RHipJoint
	{
		OFFSET 0 0 0
		CHANNELS 3 Zrotation Yrotation Xrotation
		JOINT RightHip
		{
			OFFSET -1.09666 -1.91611 0.81505
			CHANNELS 3 Zrotation Yrotation Xrotation
			JOINT RightKnee
			{
				OFFSET -2.51373 -6.90642 0.00000
				CHANNELS 3 Zrotation Yrotation Xrotation
				JOINT RightAnkle
				{
					OFFSET -2.70173 -7.42295 0.00000
					CHANNELS 3 Zrotation Yrotation Xrotation
					JOINT RightToe
					{
						OFFSET -0.22214 -0.61032 2.18267
						CHANNELS 3 Zrotation Yrotation Xrotation
						End Site
						{
							OFFSET -0.00000 -0.00000 1.13683
						}
					}
				}
			}
		}
	}
	JOINT lowerback
	{
		OFFSET 0 0 0
		CHANNELS 3 Zrotation Yrotation Xrotation
		JOINT Chest
		{
			OFFSET -0.00990 2.16804 -0.08389
			CHANNELS 3 Zrotation Yrotation Xrotation
			JOINT Chest2
			{
				OFFSET 0.06407 2.15456 0.07285
				CHANNELS 3 Zrotation Yrotation Xrotation
				JOINT lowerneck
				{
					OFFSET 0 0 0
					CHANNELS 3 Zrotation Yrotation Xrotation
					JOINT Neck
					{
						OFFSET -0.16931 1.61602 0.24462
						CHANNELS 3 Zrotation Yrotation Xrotation
						JOINT Head
						{
							OFFSET 0.21556 1.63376 -0.33896
							CHANNELS 3 Zrotation Yrotation Xrotation
							End Site
							{
								OFFSET 0.08444 1.69244 -0.14900
							}
						}
					}
				}
				JOINT LeftCollar
				{
					OFFSET 0 0 0
					CHANNELS 3 Zrotation Yrotation Xrotation
					JOINT LeftShoulder
					{
						OFFSET 2.89000 1.40150 -0.54392
CHANNELS 3 Zrotation Xrotation Yrotation
						JOINT LeftElbow
						{
OFFSET 0 -5.107550 0.000000
CHANNELS 3 Zrotation Xrotation Yrotation
							JOINT LeftWrist
							{
OFFSET 0 -3.362530 0.000000
CHANNELS 3 Zrotation Xrotation Yrotation
								JOINT lhand
								{
									OFFSET 0 0 0
CHANNELS 3 Zrotation Xrotation Yrotation
									JOINT LFingers
									{
OFFSET 0 -0.619090 0.000000
CHANNELS 3 Zrotation Xrotation Yrotation
										End Site
										{
OFFSET 0 -0.499120 0.000000
										}
									}
								}
								JOINT LThumb
								{
OFFSET 0 0.000000 0.000000
CHANNELS 3 Zrotation Xrotation Yrotation
									End Site
									{
OFFSET 0 -0.506750 0.506750
									}
								}
							}
						}
					}
				}
				JOINT RightCollar
				{
					OFFSET 0 0 0
					CHANNELS 3 Zrotation Yrotation Xrotation
					JOINT RightShoulder
					{
						OFFSET -2.65771 1.70968 -0.54312
CHANNELS 3 Zrotation Xrotation Yrotation
						JOINT RightElbow
						{
OFFSET 0 -5.273870 0.000000
CHANNELS 3 Zrotation Xrotation Yrotation
							JOINT RightWrist
							{
OFFSET 0 -3.401440 0.000000
CHANNELS 3 Zrotation Xrotation Yrotation
								JOINT rhand
								{
									OFFSET 0 0 0
CHANNELS 3 Zrotation Xrotation Yrotation
									JOINT RFingers
									{
OFFSET 0 -0.742820 0.000000
CHANNELS 3 Zrotation Xrotation Yrotation
										End Site
										{
OFFSET 0 -0.598880 0.000000
										}
									}
								}
								JOINT RThumb
								{
OFFSET 0 0.000000 0.000000
CHANNELS 3 Zrotation Xrotation Yrotation
									End Site
									{
OFFSET 0 -0.608030 0.608030
									}
								}
							}
						}
					}
				}
			}
		}
	}
}
MOTION
Frames: 4
Frame Time: 0.008333333333333333
7.061100 17.968200 -17.033700 -7.757000 -0.357300 -2.046100 0.000000 0.000000 0.000000 -8.287000 -3.302500 -27.543700 8.595100 16.540000 54.678900 0.220000 -1.746300 -8.421700 0.975600 -6.287700 -17.621600 0.000000 0.000000 0.000000 32.192900 0.177000 3.879800 -1.129200 -6.749500 18.975300 -0.702900 4.042900 -14.986400 -0.150400 2.499300 -6.887600 5.129000 1.612900 10.920100 4.639100 3.035800 0.743200 1.517300 1.427300 -5.343900 -15.293500 -5.602800 -18.831300 9.080500 -5.847300 28.011800 5.185800 -3.026700 13.333600 0.000000 0.000000 0.000000 -3.545600 12.347900 -16.891000 15.897100 -25.380900 3.601700 12.852900 8.755200 -28.383300 0.000000 0.000000 0.000000 -7.125000 0.000000 0.000000 -19.774700 57.862900 6.390100 0.000000 0.000000 0.000000 -7.290100 1.507900 20.933500 -15.002600 -24.149700 -3.227000 -22.523100 -2.173800 -10.337300 0.000000 0.000000 0.000000 7.125000 0.000000 -0.000000 3.192700 18.819200 1.995200
7.173666 17.917597 -15.186632 -7.904673 -1.058851 -0.033033 0.000000 0.000000 0.000000 -7.808775 -8.451238 -27.789497 1.933949 8.725517 24.941449 0.249599 -0.693525 -9.217485 0.848547 -5.874689 -16.421346 0.000000 0.000000 0.000000 31.871223 -2.041681 14.928420 -0.160595 -2.574818 7.097633 -0.516181 1.373239 -13.161724 -0.383932 3.936988 -10.905215 5.546917 2.307312 10.321687 4.144558 3.998228 -0.213626 0.631322 1.860649 -5.947631 -15.436367 -5.662790 -17.343592 9.344044 -6.133175 26.485666 5.213448 -3.131372 12.457869 0.000000 0.000000 0.000000 -4.002558 13.506874 -13.982301 14.459863 -23.388257 3.008241 12.493656 9.756229 -27.220019 0.000000 0.000000 0.000000 -7.125000 0.000000 0.000000 -19.379071 56.692775 5.702371 0.000000 0.000000 0.000000 -8.252118 0.284904 24.380085 -18.541300 -28.844696 -4.807621 -22.588947 -5.206084 -9.858608 0.000000 0.000000 0.000000 7.125000 0.000000 0.000000 3.130668 19.328633 1.920996
7.479398 17.790900 -12.952053 -6.557118 -1.837455 0.207344 0.000000 0.000000 0.000000 -10.539948 -9.787459 -25.266642 1.872073 8.594157 24.533875 0.022731 -5.725740 -4.601449 1.130229 -6.749987 -18.977562 0.000000 0.000000 0.000000 28.754385 -2.688687 20.125264 -0.381768 -3.961114 10.968240 -0.231894 2.477476 -8.571352 -1.651407 8.097926 -23.012434 4.555724 2.678966 9.587626 3.674671 4.305099 -0.440958 0.674006 2.037042 -5.797438 -15.232188 -5.842461 -17.310318 8.925472 -6.365752 27.009961 4.990411 -3.277634 12.676333 0.000000 0.000000 0.000000 -4.333915 13.499981 -13.446027 14.454465 -23.380494 3.006236 11.676778 10.092451 -29.550383 0.000000 0.000000 0.000000 -7.125000 0.000000 0.000000 -21.816103 58.691496 7.530570 0.000000 0.000000 0.000000 -7.647414 0.456910 21.944420 -19.947832 -30.579461 -5.504795 -22.530555 -4.442745 -9.617024 0.000000 0.000000 0.000000 7.125000 0.000000 0.000000 3.165071 19.593152 1.923450
7.833768 18.013987 -10.579710 -0.716077 -2.170435 -1.208222 0.000000 0.000000 0.000000 -20.196921 -2.348579 -18.137369 1.857004 8.561205 24.432239 -0.302316 -10.383851 -0.176271 0.390596 -4.007466 -11.098369 0.000000 0.000000 0.000000 20.022787 1.132207 4.077663 -6.215535 -14.625072 45.824153 -1.219695 -6.471755 19.698638 -0.421614 4.167350 -11.548101 -0.450270 2.342575 9.800097 1.796027 3.176981 -0.428302 1.658575 1.605234 -6.076689 -15.002722 -5.537594 -17.649662 8.777542 -5.984708 28.574477 5.016316 -3.136042 13.317964 0.000000 0.000000 0.000000 -3.234098 11.433254 -12.030572 14.069037 -22.833284 2.854876 13.080632 10.046800 -28.145057 0.000000 0.000000 0.000000 -7.125000 0.000000 0.000000 -19.380543 57.687858 6.173512 0.000000 0.000000 0.000000 -4.878922 3.478879 19.163413 -18.963474 -29.373256 -5.012920 -22.977426 -4.140315 -6.751317 0.000000 0.000000 0.000000 7.125000 0.000000 0.000000 2.778677 22.655343 1.495714
